<svg width="264" height="258" viewBox="0 0 264 258" fill="none" xmlns="http://www.w3.org/2000/svg">
<g filter="url(#filter0_d_1_3)">
<path d="M132.001 0C61.317 0 4 57.307 4 128.001C4 184.555 40.676 232.536 91.535 249.461C97.932 250.646 100.281 246.684 100.281 243.303C100.281 240.251 100.161 230.168 100.107 219.473C64.497 227.215 56.983 204.37 56.983 204.37C51.16 189.575 42.77 185.64 42.77 185.64C31.157 177.696 43.646 177.86 43.646 177.86C56.499 178.762 63.267 191.05 63.267 191.05C74.684 210.618 93.212 204.961 100.516 201.69C101.665 193.418 104.982 187.77 108.643 184.574C80.212 181.338 50.325 170.362 50.325 121.316C50.325 107.341 55.325 95.922 63.513 86.958C62.184 83.734 57.803 70.716 64.753 53.084C64.753 53.084 75.502 49.644 99.963 66.205C110.173 63.369 121.123 61.947 132.001 61.898C142.879 61.947 153.838 63.368 164.067 66.205C188.498 49.645 199.232 53.085 199.232 53.085C206.199 70.715 201.816 83.735 200.487 86.958C208.694 95.922 213.66 107.341 213.66 121.316C213.66 170.479 183.716 181.304 155.213 184.473C159.804 188.445 163.895 196.235 163.895 208.177C163.895 225.303 163.747 239.087 163.747 243.303C163.747 246.71 166.051 250.701 172.539 249.443C223.37 232.5 260 184.537 260 128.002C260 57.307 202.691 0 132.001 0ZM51.941 182.34C51.659 182.976 50.658 183.167 49.747 182.73C48.818 182.313 48.297 181.446 48.597 180.808C48.873 180.153 49.876 179.97 50.802 180.409C51.732 180.827 52.262 181.702 51.941 182.34ZM58.237 187.958C57.627 188.524 56.433 188.261 55.623 187.367C54.786 186.475 54.629 185.281 55.248 184.707C55.878 184.141 57.035 184.406 57.874 185.298C58.712 186.201 58.874 187.386 58.237 187.958ZM62.557 195.146C61.772 195.691 60.49 195.18 59.697 194.042C58.913 192.904 58.913 191.539 59.714 190.992C60.509 190.445 61.772 190.937 62.575 192.067C63.357 193.224 63.357 194.589 62.556 195.147L62.557 195.146ZM69.861 203.471C69.16 204.245 67.665 204.037 66.571 202.981C65.452 201.949 65.141 200.485 65.845 199.711C66.555 198.935 68.058 199.153 69.16 200.201C70.27 201.231 70.61 202.706 69.861 203.471ZM79.303 206.281C78.993 207.284 77.553 207.74 76.104 207.314C74.656 206.875 73.709 205.701 74.001 204.688C74.302 203.678 75.748 203.204 77.208 203.66C78.654 204.096 79.604 205.262 79.303 206.282V206.281ZM90.047 207.474C90.083 208.529 88.854 209.404 87.332 209.424C85.802 209.458 84.563 208.604 84.546 207.564C84.546 206.499 85.748 205.632 87.279 205.606C88.801 205.576 90.047 206.424 90.047 207.474ZM100.602 207.069C100.784 208.099 99.727 209.157 98.215 209.439C96.73 209.71 95.354 209.074 95.165 208.053C94.981 206.997 96.058 205.939 97.541 205.666C99.055 205.403 100.409 206.022 100.602 207.069Z" fill="#F7F7F7"/>
<path d="M68.5004 170.506C79.3603 179.646 93.6035 183.266 107.509 184.945C104.116 188.288 101.171 193.722 100.06 201.345C96.4032 202.953 90.1715 205.035 83.4784 204.437C76.6648 203.828 69.3261 200.44 63.7016 190.803C63.7007 190.801 63.6998 190.8 63.6989 190.798L63.6985 190.797L63.6821 190.768C63.6679 190.743 63.647 190.707 63.6196 190.66C63.5646 190.566 63.4833 190.429 63.3756 190.256C63.1603 189.91 62.8398 189.417 62.4151 188.825C61.5664 187.64 60.2994 186.051 58.6237 184.434C55.2757 181.201 50.2657 177.823 43.681 177.361L43.6668 177.36L43.6526 177.36L43.646 177.86C43.6526 177.36 43.6524 177.36 43.6521 177.36H43.6514L43.6491 177.36L43.6411 177.36L43.612 177.36C43.5869 177.36 43.5507 177.36 43.5044 177.36C43.4119 177.361 43.279 177.363 43.1148 177.369C42.7867 177.38 42.3314 177.405 41.8214 177.461C40.8214 177.571 39.5354 177.807 38.6056 178.337C38.1353 178.605 37.7089 178.974 37.4854 179.488C37.2551 180.016 37.2744 180.618 37.5466 181.266C38.0702 182.514 39.5802 184.064 42.4877 186.053L42.5211 186.076L42.5571 186.092L42.5573 186.092L42.5577 186.093L42.5596 186.094L42.5735 186.1C42.5868 186.107 42.6078 186.117 42.6364 186.132C42.6936 186.162 42.7808 186.208 42.8953 186.273C43.1244 186.403 43.463 186.607 43.8897 186.899C44.7431 187.482 45.9495 188.417 47.3388 189.81C50.1148 192.593 53.6278 197.215 56.5132 204.542L56.5155 204.548C56.5199 204.561 56.5263 204.58 56.5346 204.603C56.5405 204.619 56.5474 204.639 56.5553 204.66C56.5698 204.7 56.5878 204.748 56.6095 204.804C56.6764 204.978 56.7781 205.228 56.9197 205.542C57.2028 206.17 57.6457 207.052 58.2893 208.083C59.5763 210.146 61.6681 212.809 64.8914 215.225C71.2827 220.014 82.0445 223.773 99.6102 220.09C99.6401 225.74 99.6874 231.178 99.7247 235.459C99.7565 239.113 99.781 241.924 99.781 243.303C99.781 244.889 99.2291 246.576 97.9699 247.725C96.7304 248.855 94.7254 249.536 91.6598 248.976C41.0162 232.107 4.5 184.321 4.5 128.001C4.5 57.5832 61.5931 0.5 132.001 0.5C202.415 0.5 259.5 57.5831 259.5 128.002C259.5 184.304 223.029 232.072 172.412 248.958C169.298 249.555 167.284 248.883 166.047 247.753C164.79 246.605 164.247 244.906 164.247 243.303C164.247 241.906 164.263 239.458 164.285 236.184C164.296 234.521 164.309 232.644 164.321 230.584C164.358 224.47 164.395 216.741 164.395 208.177C164.395 196.823 160.729 189.117 156.356 184.845C170.293 183.2 184.565 179.633 195.446 170.526C206.635 161.161 214.16 146.007 214.16 121.316C214.16 107.332 209.23 95.8711 201.068 86.8538C202.545 83.1202 206.533 70.1988 199.697 52.9012L199.61 52.6811L199.385 52.6089L199.337 52.7576C199.384 52.6087 199.384 52.6086 199.383 52.6085L199.382 52.6081L199.379 52.607L199.369 52.604L199.366 52.603C199.358 52.6008 199.349 52.598 199.338 52.5948C199.311 52.5873 199.274 52.5773 199.227 52.5653C199.132 52.5415 198.994 52.5103 198.812 52.4775C198.449 52.4118 197.912 52.3397 197.196 52.3068C195.763 52.241 193.616 52.3325 190.708 52.9458C184.923 54.1657 176.134 57.4493 163.978 65.6616C153.767 62.8529 142.843 61.4468 132.003 61.398L131.999 61.398C121.159 61.4468 110.244 62.8538 100.052 65.6616C87.8803 57.4487 79.0802 54.1649 73.2882 52.9449C70.3766 52.3316 68.2263 52.24 66.7918 52.3058C66.0748 52.3387 65.5373 52.4108 65.1738 52.4765C64.992 52.5093 64.8539 52.5405 64.7585 52.5643C64.7109 52.5762 64.674 52.5863 64.6477 52.5938C64.6345 52.5975 64.624 52.6006 64.6162 52.603L64.6064 52.606L64.603 52.607L64.6017 52.6074C64.6011 52.6076 64.6006 52.6078 64.753 53.084L64.6006 52.6078L64.3748 52.6801L64.2878 52.9006C57.4687 70.2007 61.4558 83.1204 62.9319 86.8541C54.7894 95.8706 49.825 107.331 49.825 121.316C49.825 145.949 57.3358 161.11 68.5004 170.506ZM77.208 203.66C77.8459 203.852 78.3872 204.187 78.7672 204.588C78.2083 204.43 77.6494 204.25 77.0915 204.046C77.0902 204.046 77.089 204.046 77.0877 204.045C76.637 203.881 76.1869 203.701 75.7381 203.505C76.1947 203.455 76.7005 203.502 77.208 203.66ZM77.2369 203.567C77.8338 203.786 78.4318 203.977 79.0296 204.142C78.5934 203.719 78.0134 203.381 77.3547 203.182L77.2369 203.567ZM75.8216 202.996C76.2919 203.204 76.7636 203.394 77.236 203.567L75.8216 202.996ZM78.5209 205.065C78.8295 205.449 78.9131 205.826 78.8255 206.133L78.8253 206.133C78.7328 206.433 78.4549 206.704 77.9778 206.857C77.5046 207.009 76.8861 207.022 76.247 206.835C75.6089 206.641 75.1006 206.29 74.7899 205.903C74.4777 205.514 74.3939 205.133 74.4808 204.829C74.5714 204.528 74.8483 204.253 75.3235 204.1C75.7964 203.947 76.4166 203.937 77.0589 204.137L77.0637 204.139C77.7024 204.331 78.2112 204.68 78.5209 205.065ZM55.3848 185.849C55.334 185.481 55.4298 185.222 55.585 185.076C55.7466 184.933 56.0109 184.862 56.3723 184.943C56.7345 185.025 57.1481 185.256 57.509 185.64C57.8671 186.026 58.0634 186.455 58.1132 186.82C58.1631 187.185 58.0653 187.44 57.9029 187.586L57.8969 187.591C57.7493 187.728 57.4857 187.805 57.1144 187.722C56.7482 187.64 56.3359 187.409 55.9936 187.031L55.9876 187.025C55.6317 186.646 55.4356 186.217 55.3848 185.849ZM51.4944 182.115L51.4889 182.126L51.4839 182.137C51.4298 182.259 51.2816 182.392 50.9904 182.445C50.704 182.498 50.3326 182.456 49.9633 182.279L49.9633 182.279L49.9518 182.274C49.569 182.102 49.2902 181.845 49.14 181.595C48.9884 181.342 48.991 181.145 49.0495 181.021L49.0538 181.012L49.0578 181.002C49.1114 180.875 49.2561 180.743 49.545 180.69C49.8314 180.638 50.2079 180.681 50.5878 180.861L50.597 180.865C50.9804 181.037 51.2612 181.296 51.4109 181.548C51.5618 181.801 51.5553 181.994 51.4944 182.115ZM61.3116 194.759C60.898 194.598 60.4552 194.255 60.108 193.757C59.7667 193.261 59.6094 192.734 59.6111 192.297C59.6128 191.859 59.7688 191.56 59.996 191.405L59.9974 191.404C60.2215 191.25 60.5528 191.212 60.9639 191.368C61.3727 191.523 61.812 191.858 62.1641 192.352C62.5044 192.857 62.661 193.389 62.6591 193.829C62.6572 194.271 62.5016 194.574 62.272 194.735L62.2719 194.735C62.0579 194.884 61.7288 194.922 61.3116 194.759ZM69.5037 203.121L69.4969 203.128L69.4904 203.135C69.2838 203.363 68.9225 203.489 68.4355 203.417C67.952 203.347 67.3984 203.085 66.9182 202.621L66.9183 202.621L66.91 202.613C66.417 202.159 66.118 201.623 66.0128 201.142C65.9071 200.66 66.002 200.282 66.2139 200.049C66.4242 199.819 66.7902 199.694 67.2828 199.767C67.772 199.839 68.3308 200.102 68.8154 200.563L68.8199 200.568C69.3103 201.023 69.6137 201.562 69.7192 202.043C69.825 202.525 69.7263 202.894 69.5037 203.121ZM89.547 207.474V207.483L89.5473 207.491C89.5579 207.803 89.3843 208.143 88.9826 208.431C88.5828 208.717 87.9974 208.915 87.3254 208.924L87.3209 208.924C86.6477 208.939 86.0594 208.757 85.6512 208.482C85.2416 208.206 85.0527 207.869 85.046 207.56C85.0475 207.231 85.2325 206.887 85.63 206.602C86.0285 206.315 86.6097 206.117 87.2875 206.106L87.2888 206.106C87.959 206.093 88.547 206.274 88.9536 206.549C89.3625 206.826 89.547 207.162 89.547 207.474ZM100.11 207.158C100.164 207.465 100.042 207.83 99.691 208.18C99.3409 208.529 98.794 208.822 98.1238 208.947C97.4723 209.066 96.8626 208.982 96.4118 208.776C95.9575 208.568 95.714 208.266 95.6571 207.964C95.6021 207.643 95.7291 207.271 96.081 206.92C96.4322 206.569 96.9758 206.279 97.6291 206.158C98.2999 206.042 98.9115 206.126 99.3587 206.331C99.8063 206.536 100.05 206.838 100.11 207.158Z" stroke="black"/>
</g>
<defs>
<filter id="filter0_d_1_3" x="0" y="0" width="264" height="257.68" filterUnits="userSpaceOnUse" color-interpolation-filters="sRGB">
<feFlood flood-opacity="0" result="BackgroundImageFix"/>
<feColorMatrix in="SourceAlpha" type="matrix" values="0 0 0 0 0 0 0 0 0 0 0 0 0 0 0 0 0 0 127 0" result="hardAlpha"/>
<feOffset dy="4"/>
<feGaussianBlur stdDeviation="2"/>
<feComposite in2="hardAlpha" operator="out"/>
<feColorMatrix type="matrix" values="0 0 0 0 0 0 0 0 0 0 0 0 0 0 0 0 0 0 0.25 0"/>
<feBlend mode="normal" in2="BackgroundImageFix" result="effect1_dropShadow_1_3"/>
<feBlend mode="normal" in="SourceGraphic" in2="effect1_dropShadow_1_3" result="shape"/>
</filter>
</defs>
</svg>
